<?xml version="1.0" encoding="UTF-8"?>
<svg id="_レイヤー_1" data-name="レイヤー 1" xmlns="http://www.w3.org/2000/svg" viewBox="0 0 508.92 508.92">
  <defs>
    <style>
      .cls-1 {
        fill: none;
        stroke-width: 0px;
      }

      .cls-2 {
        fill: #fff;
        stroke: #fff;
        stroke-miterlimit: 10;
        stroke-width: 5px;
      }
    </style>
  </defs>
  <g>
    <path class="cls-2" d="M99.15,94.69v333.08c0,6.58,5.34,11.92,11.92,11.92h90.62c6.58,0,11.92-5.34,11.92-11.92V94.69c0-6.58-5.34-11.92-11.92-11.92h-90.62c-6.58,0-11.92,5.34-11.92,11.92Z"/>
    <path class="cls-2" d="M283.77,313.09s14.77-2.01,14.77,26.29v88.38c0,6.58,5.34,11.92,11.92,11.92h90.92c6.41,0,11.62-5.2,11.62-11.62v-160.08s-.62-26.46-24.62-35.69-33.46-6.6-33.46-6.6l55.23-135.94c1.36-3.34-1.1-7-4.71-7h-127.38c-4.74,0-9,2.87-10.77,7.26l-53.67,132.51v90.55h70.15Z"/>
  </g>
  <rect class="cls-1" width="508.92" height="508.92" rx="15.69" ry="15.69"/>
</svg>